# Blender v3.0.0 OBJ File: 'Testenv1.blend'
# www.blender.org
mtllib Final_ceilMat.mtl
o Object_4.001_Object_0.001
v 3.340387 2.137259 -0.109611
v 3.340387 2.137259 -0.109611
v 5.919103 3.638802 0.806326
v 5.919103 3.638802 0.806326
v 3.340387 2.137259 -1.190389
v 3.340387 2.137259 -1.190389
v 5.919103 3.638803 -2.106327
v 5.919103 3.638803 -2.106327
v -1.253027 2.222313 -0.150282
v -1.253027 2.222313 -0.150282
v -3.539602 3.553748 0.661890
v -3.539602 3.553748 0.661890
v -1.253027 2.222314 -1.149719
v -1.253027 2.222314 -1.149719
v -3.539602 3.553748 -1.961890
v -3.539602 3.553748 -1.961890
v -2.666490 3.572516 1.015332
v -2.666490 3.572516 1.015332
v -2.910533 3.623561 -2.346469
v -2.910533 3.623561 -2.346469
v -0.384169 2.152501 -1.449126
v -0.384169 2.152501 -1.449126
v -0.315451 2.203545 0.180263
v -0.315451 2.203545 0.180263
v 2.548881 2.203545 0.180263
v 2.548881 2.203545 0.180263
v 4.899920 3.572516 1.015332
v 4.899920 3.572516 1.015332
v 2.617599 2.152501 -1.449126
v 2.617599 2.152501 -1.449126
v 5.143963 3.623561 -2.346469
v 5.143963 3.623561 -2.346469
v -4.079344 3.868031 -2.495595
v -4.079344 3.868031 -2.495595
v -4.079344 3.868031 -2.495595
v -4.079344 3.868031 -2.495595
v -4.079344 3.868031 -2.495595
v -0.074283 1.908031 -1.073032
v 2.307713 1.908031 -1.073032
v 6.312774 3.868031 -2.495595
v 6.312774 3.868031 -2.495595
v 6.312774 3.868031 -2.495595
v 6.312774 3.868031 -2.495595
v 6.312774 3.868031 -2.495595
v 6.312774 3.868031 1.195595
v 6.312774 3.868031 1.195595
v 6.312774 3.868031 1.195595
v 6.312774 3.868031 1.195595
v 6.312774 3.868031 1.195595
v -4.079344 3.868031 1.195595
v -4.079344 3.868031 1.195595
v -4.079344 3.868031 1.195595
v -4.079344 3.868031 1.195595
v -4.079344 3.868031 1.195595
v 2.307713 1.908031 -0.226968
v -0.074283 1.908031 -0.226968
v 2.946715 1.908031 -1.300000
v 2.946715 1.908031 -1.300000
v 2.946715 1.908031 -1.300000
v 2.946715 1.908031 -1.300000
v 2.946715 1.908031 -1.300000
v -0.713285 1.908031 -1.300000
v -0.713285 1.908031 -1.300000
v -0.713285 1.908031 -1.300000
v -0.713285 1.908031 -1.300000
v -0.713285 1.908031 -1.300000
v 2.946715 1.908031 -0.000000
v 2.946715 1.908031 -0.000000
v 2.946715 1.908031 -0.000000
v 2.946715 1.908031 -0.000000
v 2.946715 1.908031 -0.000000
v -0.713285 1.908031 -0.000000
v -0.713285 1.908031 -0.000000
v -0.713285 1.908031 -0.000000
v -0.713285 1.908031 -0.000000
v -0.713285 1.908031 -0.000000
vt 0.125000 0.500000
vt 0.375000 0.500000
vt 0.375000 0.750000
vt 0.125000 0.750000
vt 0.415087 0.026239
vt 0.415087 0.223761
vt 0.375000 0.250000
vt 0.375000 0.000000
vt 0.584913 0.043016
vt 0.415087 0.026239
vt 0.375000 0.000000
vt 0.625000 0.000000
vt 0.415087 0.223761
vt 0.584913 0.206984
vt 0.625000 0.250000
vt 0.375000 0.250000
vt 0.584913 0.206984
vt 0.584913 0.043016
vt 0.625000 0.000000
vt 0.625000 0.250000
vt 0.595762 0.532193
vt 0.404238 0.518871
vt 0.375000 0.500000
vt 0.625000 0.500000
vt 0.404238 0.731129
vt 0.595762 0.717807
vt 0.625000 0.750000
vt 0.375000 0.750000
vt 0.595762 0.717807
vt 0.595762 0.532193
vt 0.625000 0.500000
vt 0.625000 0.750000
vt 0.404238 0.518871
vt 0.404238 0.731129
vt 0.375000 0.750000
vt 0.375000 0.500000
vt 0.406182 0.979827
vt 0.593818 0.965821
vt 0.625000 1.000000
vt 0.375000 1.000000
vt 0.593818 0.784179
vt 0.406182 0.770173
vt 0.375000 0.750000
vt 0.625000 0.750000
vt 0.593818 0.965821
vt 0.593818 0.784179
vt 0.625000 0.750000
vt 0.625000 1.000000
vt 0.406182 0.770173
vt 0.406182 0.979827
vt 0.375000 1.000000
vt 0.375000 0.750000
vt 0.412693 0.274590
vt 0.412693 0.475410
vt 0.375000 0.500000
vt 0.375000 0.250000
vt 0.412693 0.475410
vt 0.587307 0.459317
vt 0.625000 0.500000
vt 0.375000 0.500000
vt 0.587307 0.290683
vt 0.412693 0.274590
vt 0.375000 0.250000
vt 0.625000 0.250000
vt 0.587307 0.459317
vt 0.587307 0.290683
vt 0.625000 0.250000
vt 0.625000 0.500000
vt 0.668648 0.706352
vt 0.831352 0.706352
vt 0.875000 0.750000
vt 0.625000 0.750000
vt 0.668648 0.543648
vt 0.625000 0.500000
vt 0.831352 0.543648
vt 0.875000 0.500000
vn 0.0000 1.0000 0.0000
vn -0.5032 -0.8642 0.0000
vn 0.5032 -0.8642 -0.0000
vn -0.0000 -0.5208 -0.8537
vn 0.0000 -0.5208 0.8537
vn 0.0000 -1.0000 -0.0000
usemtl Material
s off
f 52/1/1 45/2/1 40/3/1
f 52/1/1 40/3/1 35/4/1
f 16/5/2 12/6/2 51/7/2
f 16/5/2 51/7/2 34/8/2
f 13/9/2 15/10/2 33/11/2
f 13/9/2 33/11/2 62/12/2
f 11/13/2 9/14/2 72/15/2
f 11/13/2 72/15/2 50/16/2
f 10/17/2 14/18/2 63/19/2
f 10/17/2 63/19/2 73/20/2
f 2/21/3 4/22/3 49/23/3
f 2/21/3 49/23/3 71/24/3
f 8/25/3 6/26/3 61/27/3
f 8/25/3 61/27/3 44/28/3
f 5/29/3 1/30/3 70/31/3
f 5/29/3 70/31/3 60/32/3
f 3/33/3 7/34/3 43/35/3
f 3/33/3 43/35/3 48/36/3
f 19/37/4 21/38/4 64/39/4
f 19/37/4 64/39/4 36/40/4
f 29/41/4 31/42/4 41/43/4
f 29/41/4 41/43/4 57/44/4
f 22/45/4 30/46/4 58/47/4
f 22/45/4 58/47/4 65/48/4
f 32/49/4 20/50/4 37/51/4
f 32/49/4 37/51/4 42/52/4
f 18/53/5 28/54/5 47/55/5
f 18/53/5 47/55/5 54/56/5
f 27/57/5 25/58/5 67/59/5
f 27/57/5 67/59/5 46/60/5
f 23/61/5 17/62/5 53/63/5
f 23/61/5 53/63/5 74/64/5
f 26/65/5 24/66/5 75/67/5
f 26/65/5 75/67/5 68/68/5
f 39/69/6 38/70/6 66/71/6
f 39/69/6 66/71/6 59/72/6
f 55/73/6 39/69/6 59/72/6
f 55/73/6 59/72/6 69/74/6
f 38/70/6 56/75/6 76/76/6
f 38/70/6 76/76/6 66/71/6
f 56/75/6 55/73/6 69/74/6
f 56/75/6 69/74/6 76/76/6
o Object_5_Object_1.001
v 3.340387 2.137259 -0.109611
v 5.919103 3.638802 0.806326
v 3.340387 2.137259 -1.190389
v 5.919103 3.638803 -2.106327
v -1.253027 2.222313 -0.150282
v -3.539602 3.553748 0.661890
v -1.253027 2.222314 -1.149719
v -3.539602 3.553748 -1.961890
v -2.666490 3.572516 1.015332
v -2.910533 3.623561 -2.346469
v -0.384169 2.152501 -1.449126
v -0.315451 2.203545 0.180263
v 2.548881 2.203545 0.180263
v 4.899920 3.572516 1.015332
v 2.617599 2.152501 -1.449126
v 5.143963 3.623561 -2.346469
v -0.074283 1.908031 -1.073032
v 2.307713 1.908031 -1.073032
v 2.307713 1.908031 -0.226968
v -0.074283 1.908031 -0.226968
vt 0.668648 0.543648
vt 0.831352 0.543648
vt 0.831352 0.706352
vt 0.668648 0.706352
vt 0.406182 0.770173
vt 0.593818 0.784179
vt 0.593818 0.965821
vt 0.406182 0.979827
vt 0.415087 0.026239
vt 0.584913 0.043016
vt 0.584913 0.206984
vt 0.415087 0.223761
vt 0.404238 0.518871
vt 0.595762 0.532193
vt 0.595762 0.717807
vt 0.404238 0.731129
vt 0.412693 0.274590
vt 0.587307 0.290683
vt 0.587307 0.459317
vt 0.412693 0.475410
vn 0.0000 -1.0000 -0.0000
vn 0.0000 -0.5208 -0.8537
vn -0.5032 -0.8642 -0.0000
vn 0.5032 -0.8642 0.0000
vn 0.0000 -0.5208 0.8537
usemtl Material.009
s off
f 95/77/7 96/78/7 93/79/7
f 95/77/7 93/79/7 94/80/7
f 92/81/8 91/82/8 87/83/8
f 92/81/8 87/83/8 86/84/8
f 84/85/9 83/86/9 81/87/9
f 84/85/9 81/87/9 82/88/9
f 78/89/10 77/90/10 79/91/10
f 78/89/10 79/91/10 80/92/10
f 85/93/11 88/94/11 89/95/11
f 85/93/11 89/95/11 90/96/11
